<svg id="Layer_1" enable-background="new 0 0 480 480" height="512" viewBox="0 0 480 480" width="512" xmlns="http://www.w3.org/2000/svg"><path d="m365.67 107.5v27.163c0 2.837-2.866 4.775-5.496 3.71-11.757-4.758-30.493-13.219-36.224-18.313-8.1-7.19-12.43-15.34-14.64-20.91-6.854-17.253-29.956-20.555-41.34-5.78-32.36 42.09-79.77 66.56-129.15 71.06-12.36 1.13-21.82 11.49-21.82 23.9 0 25.11-.01 23 .02 24 .71 40.63 21.23 76.5 52.27 98.38 6.067 4.276 4.539 15.46-8.72 15.46-17.09 0-33.52 4.33-48.03 12.45-5.32 2.98-11.87-.9-11.87-6.99v-224.13c0-59.371 48.129-107.5 107.5-107.5h50c59.371 0 107.5 48.129 107.5 107.5zm-54.96 203.22c-6.079 4.28-4.488 15.45 8.72 15.45 12.29 0 24.24 2.23 35.38 6.51 5.24 2.01 10.86-1.85 10.86-7.46v-71.762c0-4.297-5.874-5.582-7.634-1.662-10.782 24.004-28.222 45.451-47.326 58.924zm-65.813 90.606c-2.883 2.232-6.912 2.232-9.795 0l-21.448-16.605c-5.716-4.425-13.905.399-12.804 7.544l12.473 80.954c.601 3.902 3.959 6.782 7.907 6.782h37.541c3.948 0 7.306-2.88 7.907-6.782l12.473-80.954c1.101-7.145-7.088-11.969-12.804-7.544zm42.919-65.202c.922-5.874-4.662-10.668-10.324-8.852-24.336 7.806-50.66 7.802-74.987-.004-5.662-1.817-11.248 2.979-10.324 8.853.424 2.695.948 6.032 1.588 10.188.31 2.03 1.39 3.86 3.01 5.11l38.32 29.67c2.89 2.23 6.91 2.23 9.8 0l38.32-29.67c1.62-1.25 2.7-3.08 3.01-5.11.64-4.151 1.164-7.488 1.587-10.185zm31.614 6.046c-2.581 0-5.119-.289-7.574-.853-4.525-1.038-8.975 1.987-9.682 6.575l-18.934 122.89c-.747 4.847 3.003 9.218 7.907 9.218h102.853c4.418 0 8-3.582 8-8v-47.26c0-45.629-36.941-82.57-82.57-82.57zm-141.605 5.721c-.708-4.597-5.17-7.609-9.703-6.57-2.426.556-4.954.85-7.552.85-45.628 0-82.57 36.94-82.57 82.57v47.259c0 4.418 3.582 8 8 8h102.853c4.904 0 8.653-4.372 7.907-9.218zm163.365-200.591c-20.986-5.946-38.462-21.371-46.75-42.25-2.308-5.782-10.026-6.821-13.78-1.93-35.247 45.845-86.83 72.36-140.39 77.25-4.12.37-7.27 3.83-7.27 7.96 0 .246-.006 23.235.01 23.48.91 58.23 48.56 105.31 106.99 105.31 58.72 0 106.54-47.54 107-106.16v-55.96c0-3.58-2.37-6.72-5.81-7.7z"/></svg>